<?xml version="1.0" encoding="utf-8"?>
<!-- Generator: Adobe Illustrator 26.0.3, SVG Export Plug-In . SVG Version: 6.00 Build 0)  -->
<svg version="1.0" id="katman_1" xmlns="http://www.w3.org/2000/svg" xmlns:xlink="http://www.w3.org/1999/xlink" x="0px" y="0px"
	 viewBox="0 0 600 450" style="enable-background:new 0 0 600 450;" xml:space="preserve">
<style type="text/css">
	.st0{fill:#6E9AB4;}
	.st1{fill:#67B976;}
</style>
<path class="st0" d="M494.1,197.7c16.3,0,27.2,12.7,27.2,27.5c0,14.8-11.1,27.7-27.3,27.7c-16.3,0-27.2-12.7-27.2-27.5
	C466.8,210.6,477.8,197.7,494.1,197.7z M438.2,198.7c12.1,0,20,6.4,20,17c0,11.6-9.6,17.5-21,17.5h-13v18.8h-6v-53.4H438.2z
	 M289.5,198.7v5.6h-17.9v47.8h-6.1v-47.8h-17.9v-5.6H289.5z M339.4,198.7v5.5h-32.6v18.2H336v5.5h-29.1v18.7h33v5.5h-39v-53.4H339.4
	z M358,198.7l19.5,29.1l19.5-29.1h6.1v53.4h-6v-43.3l-19.5,28.6h-0.3l-19.5-28.5v43.2h-5.9v-53.4H358z M514.1,222.8h-21v5.2h21
	V222.8z M437.7,204.2h-13.5v23.5h13.2c8.8,0,14.7-4.7,14.7-11.8C452,208.2,446.3,204.2,437.7,204.2z"/>
<path class="st1" d="M215.1,197.7c16.3,0,27.2,12.7,27.2,27.5c0,14.8-11.1,27.7-27.3,27.7c-16.3,0-27.2-12.7-27.2-27.5
	C187.8,210.6,198.9,197.7,215.1,197.7z M137.4,198.7v30.7c0,11.5,6.1,18,16.3,18c9.8,0,16.1-6,16.1-17.6v-31.1h6v30.6
	c0,15.6-8.9,23.7-22.3,23.7c-13.2,0-22.2-8.1-22.2-23.2v-31.1H137.4z M121,198.7v5.6H103v47.8h-6.1v-47.8H79v-5.6H121z M217.9,204.9
	h-5.2v21h5.2V204.9z"/>
</svg>
